<?xml version="1.0" encoding="UTF-8" standalone="no"?>
<!DOCTYPE svg PUBLIC "-//W3C//DTD SVG 1.1//EN"
 "http://www.w3.org/Graphics/SVG/1.1/DTD/svg11.dtd">
<!-- Generated by graphviz version 2.26.3 (20100126.1600)
 -->
<!-- Title: G Pages: 1 -->
<svg width="716pt" height="556pt"
 viewBox="0.00 0.00 716.00 556.00" xmlns="http://www.w3.org/2000/svg" xmlns:xlink="http://www.w3.org/1999/xlink">
<g id="graph1" class="graph" transform="scale(1 1) rotate(0) translate(4 552)">
<title>G</title>
<polygon fill="white" stroke="white" points="-4,5 -4,-552 713,-552 713,5 -4,5"/>
<g id="graph2" class="cluster"><title>cluster_Global</title>
<polyline fill="none" stroke="gray" points="186,-8 688,-8 "/>
<path fill="none" stroke="gray" d="M688,-8C694,-8 700,-14 700,-20"/>
<polyline fill="none" stroke="gray" points="700,-20 700,-528 "/>
<path fill="none" stroke="gray" d="M700,-528C700,-534 694,-540 688,-540"/>
<polyline fill="none" stroke="gray" points="688,-540 186,-540 "/>
<path fill="none" stroke="gray" d="M186,-540C180,-540 174,-534 174,-528"/>
<polyline fill="none" stroke="gray" points="174,-528 174,-20 "/>
<path fill="none" stroke="gray" d="M174,-20C174,-14 180,-8 186,-8"/>
<text text-anchor="middle" x="437" y="-526.1" font-family="Times Roman,serif" font-size="11.00" fill="gray">\</text>
</g>
<g id="graph3" class="cluster"><title>cluster_\Phine</title>
<polyline fill="none" stroke="gray" points="194,-16 680,-16 "/>
<path fill="none" stroke="gray" d="M680,-16C686,-16 692,-22 692,-28"/>
<polyline fill="none" stroke="gray" points="692,-28 692,-498 "/>
<path fill="none" stroke="gray" d="M692,-498C692,-504 686,-510 680,-510"/>
<polyline fill="none" stroke="gray" points="680,-510 194,-510 "/>
<path fill="none" stroke="gray" d="M194,-510C188,-510 182,-504 182,-498"/>
<polyline fill="none" stroke="gray" points="182,-498 182,-28 "/>
<path fill="none" stroke="gray" d="M182,-28C182,-22 188,-16 194,-16"/>
<text text-anchor="middle" x="437" y="-496.1" font-family="Times Roman,serif" font-size="11.00" fill="gray">Phine</text>
</g>
<g id="graph4" class="cluster"><title>cluster_\Phine\Compact</title>
<polyline fill="none" stroke="gray" points="202,-24 672,-24 "/>
<path fill="none" stroke="gray" d="M672,-24C678,-24 684,-30 684,-36"/>
<polyline fill="none" stroke="gray" points="684,-36 684,-386 "/>
<path fill="none" stroke="gray" d="M684,-386C684,-392 678,-398 672,-398"/>
<polyline fill="none" stroke="gray" points="672,-398 202,-398 "/>
<path fill="none" stroke="gray" d="M202,-398C196,-398 190,-392 190,-386"/>
<polyline fill="none" stroke="gray" points="190,-386 190,-36 "/>
<path fill="none" stroke="gray" d="M190,-36C190,-30 196,-24 202,-24"/>
<text text-anchor="middle" x="437" y="-384.1" font-family="Times Roman,serif" font-size="11.00" fill="gray">Compact</text>
</g>
<g id="graph5" class="cluster"><title>cluster_\Phine\Compact\Exception</title>
<polyline fill="none" stroke="gray" points="388,-186 664,-186 "/>
<path fill="none" stroke="gray" d="M664,-186C670,-186 676,-192 676,-198"/>
<polyline fill="none" stroke="gray" points="676,-198 676,-356 "/>
<path fill="none" stroke="gray" d="M676,-356C676,-362 670,-368 664,-368"/>
<polyline fill="none" stroke="gray" points="664,-368 388,-368 "/>
<path fill="none" stroke="gray" d="M388,-368C382,-368 376,-362 376,-356"/>
<polyline fill="none" stroke="gray" points="376,-356 376,-198 "/>
<path fill="none" stroke="gray" d="M376,-198C376,-192 382,-186 388,-186"/>
<text text-anchor="middle" x="526" y="-354.1" font-family="Times Roman,serif" font-size="11.00" fill="gray">Exception</text>
</g>
<g id="graph6" class="cluster"><title>cluster_\Phine\Exception</title>
<polyline fill="none" stroke="gray" points="223,-406 287,-406 "/>
<path fill="none" stroke="gray" d="M287,-406C293,-406 299,-412 299,-418"/>
<polyline fill="none" stroke="gray" points="299,-418 299,-468 "/>
<path fill="none" stroke="gray" d="M299,-468C299,-474 293,-480 287,-480"/>
<polyline fill="none" stroke="gray" points="287,-480 223,-480 "/>
<path fill="none" stroke="gray" d="M223,-480C217,-480 211,-474 211,-468"/>
<polyline fill="none" stroke="gray" points="211,-468 211,-418 "/>
<path fill="none" stroke="gray" d="M211,-418C211,-412 217,-406 223,-406"/>
<text text-anchor="middle" x="255" y="-466.1" font-family="Times Roman,serif" font-size="11.00" fill="gray">Exception</text>
</g>
<!-- \\Phine\\Compact\\Exception\\XmlException -->
<g id="node5" class="node"><title>\\Phine\\Compact\\Exception\\XmlException</title>
<polygon fill="none" stroke="black" points="667,-284 577,-284 577,-248 667,-248 667,-284"/>
<text text-anchor="middle" x="622" y="-263.1" font-family="Times Roman,serif" font-size="11.00">XmlException</text>
</g>
<!-- \\Phine\\Compact\\Exception\\CompactException -->
<g id="node7" class="node"><title>\\Phine\\Compact\\Exception\\CompactException</title>
<polygon fill="none" stroke="black" points="504,-284 384,-284 384,-248 504,-248 504,-284"/>
<text text-anchor="middle" x="444" y="-263.1" font-family="Times Roman,serif" font-size="11.00">CompactException</text>
</g>
<!-- \\Phine\\Compact\\Exception\\XmlException&#45;&gt;\\Phine\\Compact\\Exception\\CompactException -->
<g id="edge11" class="edge"><title>\\Phine\\Compact\\Exception\\XmlException&#45;&gt;\\Phine\\Compact\\Exception\\CompactException</title>
<path fill="none" stroke="black" d="M576.161,-266C557.305,-266 535.04,-266 514.213,-266"/>
<polygon fill="none" stroke="black" points="514.125,-262.5 504.125,-266 514.125,-269.5 514.125,-262.5"/>
</g>
<!-- \\Phine\\Compact\\Exception\\JsonException -->
<g id="node6" class="node"><title>\\Phine\\Compact\\Exception\\JsonException</title>
<polygon fill="none" stroke="black" points="668,-230 576,-230 576,-194 668,-194 668,-230"/>
<text text-anchor="middle" x="622" y="-209.1" font-family="Times Roman,serif" font-size="11.00">JsonException</text>
</g>
<!-- \\Phine\\Compact\\Exception\\JsonException&#45;&gt;\\Phine\\Compact\\Exception\\CompactException -->
<g id="edge13" class="edge"><title>\\Phine\\Compact\\Exception\\JsonException&#45;&gt;\\Phine\\Compact\\Exception\\CompactException</title>
<path fill="none" stroke="black" d="M575.697,-226.047C556.667,-231.82 534.224,-238.629 513.308,-244.974"/>
<polygon fill="none" stroke="black" points="512.059,-241.695 503.505,-247.948 514.091,-248.394 512.059,-241.695"/>
</g>
<!-- \\Phine\\Exception\\Exception -->
<g id="node15" class="node"><title>\\Phine\\Exception\\Exception</title>
<polygon fill="none" stroke="black" points="290,-450 220,-450 220,-414 290,-414 290,-450"/>
<text text-anchor="middle" x="255" y="-429.1" font-family="Times Roman,serif" font-size="11.00">Exception</text>
</g>
<!-- \\Phine\\Compact\\Exception\\CompactException&#45;&gt;\\Phine\\Exception\\Exception -->
<g id="edge15" class="edge"><title>\\Phine\\Compact\\Exception\\CompactException&#45;&gt;\\Phine\\Exception\\Exception</title>
<path fill="none" stroke="black" d="M429.682,-284.069C406.947,-311.93 360.211,-365.925 312,-402 308.119,-404.904 303.919,-407.685 299.618,-410.3"/>
<polygon fill="none" stroke="black" points="297.638,-407.401 290.719,-415.425 301.131,-413.467 297.638,-407.401"/>
</g>
<!-- \\Phine\\Compact\\Exception\\FileException -->
<g id="node8" class="node"><title>\\Phine\\Compact\\Exception\\FileException</title>
<polygon fill="none" stroke="black" points="666,-338 578,-338 578,-302 666,-302 666,-338"/>
<text text-anchor="middle" x="622" y="-317.1" font-family="Times Roman,serif" font-size="11.00">FileException</text>
</g>
<!-- \\Phine\\Compact\\Exception\\FileException&#45;&gt;\\Phine\\Exception\\Exception -->
<g id="edge21" class="edge"><title>\\Phine\\Compact\\Exception\\FileException&#45;&gt;\\Phine\\Exception\\Exception</title>
<path fill="none" stroke="black" d="M577.731,-333.51C507.591,-354.915 371.613,-396.412 300.631,-418.074"/>
<polygon fill="none" stroke="black" points="299.189,-414.855 290.646,-421.122 301.232,-421.55 299.189,-414.855"/>
</g>
<!-- \\Phine\\Compact\\Xml -->
<g id="node9" class="node"><title>\\Phine\\Compact\\Xml</title>
<polygon fill="none" stroke="black" points="649,-176 595,-176 595,-140 649,-140 649,-176"/>
<text text-anchor="middle" x="622" y="-155.1" font-family="Times Roman,serif" font-size="11.00">Xml</text>
</g>
<!-- \\Phine\\Compact\\AbstractCompact -->
<g id="node12" class="node"><title>\\Phine\\Compact\\AbstractCompact</title>
<polygon fill="none" stroke="black" points="501,-122 387,-122 387,-86 501,-86 501,-122"/>
<text text-anchor="start" x="414" y="-109.433" font-family="Times Roman,serif" font-size="11.00">«abstract»</text>
<text text-anchor="start" x="395.5" y="-96.2333" font-family="Times Roman,serif" font-size="11.00">AbstractCompact</text>
</g>
<!-- \\Phine\\Compact\\Xml&#45;&gt;\\Phine\\Compact\\AbstractCompact -->
<g id="edge7" class="edge"><title>\\Phine\\Compact\\Xml&#45;&gt;\\Phine\\Compact\\AbstractCompact</title>
<path fill="none" stroke="black" d="M594.966,-149.799C572.684,-143.039 540.116,-133.159 510.928,-124.304"/>
<polygon fill="none" stroke="black" points="511.765,-120.9 501.179,-121.347 509.733,-127.599 511.765,-120.9"/>
</g>
<!-- \\Phine\\Compact\\Php -->
<g id="node10" class="node"><title>\\Phine\\Compact\\Php</title>
<polygon fill="none" stroke="black" points="649,-122 595,-122 595,-86 649,-86 649,-122"/>
<text text-anchor="middle" x="622" y="-101.1" font-family="Times Roman,serif" font-size="11.00">Php</text>
</g>
<!-- \\Phine\\Compact\\Php&#45;&gt;\\Phine\\Compact\\AbstractCompact -->
<g id="edge17" class="edge"><title>\\Phine\\Compact\\Php&#45;&gt;\\Phine\\Compact\\AbstractCompact</title>
<path fill="none" stroke="black" d="M594.966,-104C572.781,-104 540.399,-104 511.309,-104"/>
<polygon fill="none" stroke="black" points="511.179,-100.5 501.179,-104 511.179,-107.5 511.179,-100.5"/>
</g>
<!-- \\Phine\\Compact\\Json -->
<g id="node11" class="node"><title>\\Phine\\Compact\\Json</title>
<polygon fill="none" stroke="black" points="649,-68 595,-68 595,-32 649,-32 649,-68"/>
<text text-anchor="middle" x="622" y="-47.1" font-family="Times Roman,serif" font-size="11.00">Json</text>
</g>
<!-- \\Phine\\Compact\\Json&#45;&gt;\\Phine\\Compact\\AbstractCompact -->
<g id="edge19" class="edge"><title>\\Phine\\Compact\\Json&#45;&gt;\\Phine\\Compact\\AbstractCompact</title>
<path fill="none" stroke="black" d="M594.966,-58.2014C572.684,-64.961 540.116,-74.8412 510.928,-83.6959"/>
<polygon fill="none" stroke="black" points="509.733,-80.4011 501.179,-86.6535 511.765,-87.0996 509.733,-80.4011"/>
</g>
<!-- \\Phine\\Compact\\CompactInterface -->
<g id="node13" class="node"><title>\\Phine\\Compact\\CompactInterface</title>
<polygon fill="none" stroke="black" points="312,-122 198,-122 198,-86 312,-86 312,-122"/>
<text text-anchor="middle" x="255" y="-101.1" font-family="Times Roman,serif" font-size="11.00">CompactInterface</text>
</g>
<!-- \\Phine\\Compact\\AbstractCompact&#45;&gt;\\Phine\\Compact\\CompactInterface -->
<g id="edge23" class="edge"><title>\\Phine\\Compact\\AbstractCompact&#45;&gt;\\Phine\\Compact\\CompactInterface</title>
<path fill="none" stroke="black" stroke-dasharray="1,5" d="M386.781,-104C366.426,-104 343.324,-104 322.209,-104"/>
<polygon fill="none" stroke="black" points="322.025,-100.5 312.025,-104 322.025,-107.5 322.025,-100.5"/>
</g>
<!-- \\Exception -->
<g id="node18" class="node"><title>\\Exception</title>
<ellipse fill="none" stroke="black" cx="63" cy="-432" rx="62.9325" ry="18.3848"/>
<text text-anchor="middle" x="63" y="-428.4" font-family="Times Roman,serif" font-size="14.00" fill="gray">\Exception</text>
</g>
<!-- \\Phine\\Exception\\Exception&#45;&gt;\\Exception -->
<g id="edge9" class="edge"><title>\\Phine\\Exception\\Exception&#45;&gt;\\Exception</title>
<path fill="none" stroke="black" d="M219.336,-432C196.059,-432 164.823,-432 136.392,-432"/>
<polygon fill="none" stroke="black" points="136.064,-428.5 126.064,-432 136.064,-435.5 136.064,-428.5"/>
</g>
</g>
</svg>
